<mxfile host="app.diagrams.net" modified="2021-09-14T22:14:35.831Z" agent="5.0 (Windows NT 10.0; Win64; x64) AppleWebKit/537.36 (KHTML, like Gecko) Chrome/93.0.4577.82 Safari/537.36" etag="mXyN4ozj8osWUnbhBXz_" version="15.2.7" type="github">
  <diagram id="C5RBs43oDa-KdzZeNtuy" name="Page-1">
    <mxGraphModel dx="1087" dy="460" grid="1" gridSize="10" guides="1" tooltips="1" connect="1" arrows="1" fold="1" page="1" pageScale="1" pageWidth="1169" pageHeight="1654" math="0" shadow="0">
      <root>
        <mxCell id="WIyWlLk6GJQsqaUBKTNV-0" />
        <mxCell id="WIyWlLk6GJQsqaUBKTNV-1" parent="WIyWlLk6GJQsqaUBKTNV-0" />
        <mxCell id="ckWN-J3O00ycEV46TAen-2" style="edgeStyle=orthogonalEdgeStyle;rounded=0;orthogonalLoop=1;jettySize=auto;html=1;entryX=0.5;entryY=0;entryDx=0;entryDy=0;" edge="1" parent="WIyWlLk6GJQsqaUBKTNV-1" source="ckWN-J3O00ycEV46TAen-0" target="ckWN-J3O00ycEV46TAen-1">
          <mxGeometry relative="1" as="geometry" />
        </mxCell>
        <mxCell id="ckWN-J3O00ycEV46TAen-0" value="Begin" style="ellipse;whiteSpace=wrap;html=1;" vertex="1" parent="WIyWlLk6GJQsqaUBKTNV-1">
          <mxGeometry x="500" y="10" width="120" height="80" as="geometry" />
        </mxCell>
        <mxCell id="ckWN-J3O00ycEV46TAen-4" style="edgeStyle=orthogonalEdgeStyle;rounded=0;orthogonalLoop=1;jettySize=auto;html=1;entryX=0.5;entryY=0;entryDx=0;entryDy=0;" edge="1" parent="WIyWlLk6GJQsqaUBKTNV-1" source="ckWN-J3O00ycEV46TAen-1" target="ckWN-J3O00ycEV46TAen-3">
          <mxGeometry relative="1" as="geometry" />
        </mxCell>
        <mxCell id="ckWN-J3O00ycEV46TAen-1" value="Status:&lt;br&gt;SINGLE = 1 (Single)&lt;br&gt;MARRIED_JOINTLY = 2 (Married Filing Jointly)&lt;br&gt;MARRIED_SEPERATELY = 3 (Married Filing Separately)&lt;br&gt;HEAD_OF_HOUSEHOLD = 4 (Head Of Household)" style="shape=parallelogram;perimeter=parallelogramPerimeter;whiteSpace=wrap;html=1;fixedSize=1;" vertex="1" parent="WIyWlLk6GJQsqaUBKTNV-1">
          <mxGeometry x="392.5" y="130" width="335" height="90" as="geometry" />
        </mxCell>
        <mxCell id="ckWN-J3O00ycEV46TAen-6" style="edgeStyle=orthogonalEdgeStyle;rounded=0;orthogonalLoop=1;jettySize=auto;html=1;entryX=0.5;entryY=0;entryDx=0;entryDy=0;" edge="1" parent="WIyWlLk6GJQsqaUBKTNV-1" source="ckWN-J3O00ycEV46TAen-3" target="ckWN-J3O00ycEV46TAen-5">
          <mxGeometry relative="1" as="geometry" />
        </mxCell>
        <mxCell id="ckWN-J3O00ycEV46TAen-3" value="Nhập chỉ số status" style="shape=parallelogram;perimeter=parallelogramPerimeter;whiteSpace=wrap;html=1;fixedSize=1;" vertex="1" parent="WIyWlLk6GJQsqaUBKTNV-1">
          <mxGeometry x="480" y="270" width="160" height="60" as="geometry" />
        </mxCell>
        <mxCell id="ckWN-J3O00ycEV46TAen-8" style="edgeStyle=orthogonalEdgeStyle;rounded=0;orthogonalLoop=1;jettySize=auto;html=1;" edge="1" parent="WIyWlLk6GJQsqaUBKTNV-1" source="ckWN-J3O00ycEV46TAen-5" target="ckWN-J3O00ycEV46TAen-7">
          <mxGeometry relative="1" as="geometry" />
        </mxCell>
        <mxCell id="ckWN-J3O00ycEV46TAen-11" style="edgeStyle=orthogonalEdgeStyle;rounded=0;orthogonalLoop=1;jettySize=auto;html=1;entryX=0.5;entryY=0;entryDx=0;entryDy=0;" edge="1" parent="WIyWlLk6GJQsqaUBKTNV-1" source="ckWN-J3O00ycEV46TAen-5" target="ckWN-J3O00ycEV46TAen-10">
          <mxGeometry relative="1" as="geometry" />
        </mxCell>
        <mxCell id="ckWN-J3O00ycEV46TAen-5" value="0 &amp;lt;= status &amp;lt;= 4" style="rhombus;whiteSpace=wrap;html=1;" vertex="1" parent="WIyWlLk6GJQsqaUBKTNV-1">
          <mxGeometry x="495" y="370" width="130" height="80" as="geometry" />
        </mxCell>
        <mxCell id="ckWN-J3O00ycEV46TAen-9" style="edgeStyle=orthogonalEdgeStyle;rounded=0;orthogonalLoop=1;jettySize=auto;html=1;" edge="1" parent="WIyWlLk6GJQsqaUBKTNV-1" source="ckWN-J3O00ycEV46TAen-7">
          <mxGeometry relative="1" as="geometry">
            <mxPoint x="560" y="110" as="targetPoint" />
            <Array as="points">
              <mxPoint x="820" y="110" />
            </Array>
          </mxGeometry>
        </mxCell>
        <mxCell id="ckWN-J3O00ycEV46TAen-7" value="Sai status - nhập lại" style="shape=parallelogram;perimeter=parallelogramPerimeter;whiteSpace=wrap;html=1;fixedSize=1;" vertex="1" parent="WIyWlLk6GJQsqaUBKTNV-1">
          <mxGeometry x="740" y="380" width="160" height="60" as="geometry" />
        </mxCell>
        <mxCell id="ckWN-J3O00ycEV46TAen-13" style="edgeStyle=orthogonalEdgeStyle;rounded=0;orthogonalLoop=1;jettySize=auto;html=1;entryX=0.5;entryY=0;entryDx=0;entryDy=0;" edge="1" parent="WIyWlLk6GJQsqaUBKTNV-1" source="ckWN-J3O00ycEV46TAen-10" target="ckWN-J3O00ycEV46TAen-12">
          <mxGeometry relative="1" as="geometry" />
        </mxCell>
        <mxCell id="ckWN-J3O00ycEV46TAen-10" value="Nhập thu nhập (income)" style="shape=parallelogram;perimeter=parallelogramPerimeter;whiteSpace=wrap;html=1;fixedSize=1;" vertex="1" parent="WIyWlLk6GJQsqaUBKTNV-1">
          <mxGeometry x="475" y="490" width="170" height="60" as="geometry" />
        </mxCell>
        <mxCell id="ckWN-J3O00ycEV46TAen-63" style="edgeStyle=orthogonalEdgeStyle;rounded=0;orthogonalLoop=1;jettySize=auto;html=1;" edge="1" parent="WIyWlLk6GJQsqaUBKTNV-1" source="ckWN-J3O00ycEV46TAen-12" target="ckWN-J3O00ycEV46TAen-51">
          <mxGeometry relative="1" as="geometry" />
        </mxCell>
        <mxCell id="ckWN-J3O00ycEV46TAen-66" style="edgeStyle=orthogonalEdgeStyle;rounded=0;orthogonalLoop=1;jettySize=auto;html=1;entryX=0.5;entryY=0;entryDx=0;entryDy=0;" edge="1" parent="WIyWlLk6GJQsqaUBKTNV-1" source="ckWN-J3O00ycEV46TAen-12" target="ckWN-J3O00ycEV46TAen-14">
          <mxGeometry relative="1" as="geometry" />
        </mxCell>
        <mxCell id="ckWN-J3O00ycEV46TAen-12" value="status == SINGLE" style="rhombus;whiteSpace=wrap;html=1;" vertex="1" parent="WIyWlLk6GJQsqaUBKTNV-1">
          <mxGeometry x="70" y="585" width="170" height="110" as="geometry" />
        </mxCell>
        <mxCell id="ckWN-J3O00ycEV46TAen-70" style="edgeStyle=orthogonalEdgeStyle;rounded=0;orthogonalLoop=1;jettySize=auto;html=1;" edge="1" parent="WIyWlLk6GJQsqaUBKTNV-1" source="ckWN-J3O00ycEV46TAen-14">
          <mxGeometry relative="1" as="geometry">
            <mxPoint x="280" y="880" as="targetPoint" />
          </mxGeometry>
        </mxCell>
        <mxCell id="ckWN-J3O00ycEV46TAen-14" value="income &amp;lt; 8350" style="rhombus;whiteSpace=wrap;html=1;" vertex="1" parent="WIyWlLk6GJQsqaUBKTNV-1">
          <mxGeometry x="85" y="730" width="140" height="100" as="geometry" />
        </mxCell>
        <mxCell id="ckWN-J3O00ycEV46TAen-16" value="tax = income * 0.1" style="shape=parallelogram;perimeter=parallelogramPerimeter;whiteSpace=wrap;html=1;fixedSize=1;" vertex="1" parent="WIyWlLk6GJQsqaUBKTNV-1">
          <mxGeometry x="1300" y="950" width="140" height="60" as="geometry" />
        </mxCell>
        <mxCell id="ckWN-J3O00ycEV46TAen-19" value="8451 &amp;lt;= income &amp;lt; 33950" style="rhombus;whiteSpace=wrap;html=1;" vertex="1" parent="WIyWlLk6GJQsqaUBKTNV-1">
          <mxGeometry x="90" y="1140" width="160" height="110" as="geometry" />
        </mxCell>
        <mxCell id="ckWN-J3O00ycEV46TAen-20" value="tax = income * 0.15" style="shape=parallelogram;perimeter=parallelogramPerimeter;whiteSpace=wrap;html=1;fixedSize=1;" vertex="1" parent="WIyWlLk6GJQsqaUBKTNV-1">
          <mxGeometry x="1290" y="1080" width="140" height="60" as="geometry" />
        </mxCell>
        <mxCell id="ckWN-J3O00ycEV46TAen-22" value="33951 &amp;lt;= income &amp;lt; 82250" style="rhombus;whiteSpace=wrap;html=1;" vertex="1" parent="WIyWlLk6GJQsqaUBKTNV-1">
          <mxGeometry x="90" y="1275" width="160" height="110" as="geometry" />
        </mxCell>
        <mxCell id="ckWN-J3O00ycEV46TAen-23" value="tax = income * 0.25" style="shape=parallelogram;perimeter=parallelogramPerimeter;whiteSpace=wrap;html=1;fixedSize=1;" vertex="1" parent="WIyWlLk6GJQsqaUBKTNV-1">
          <mxGeometry x="1290" y="1215" width="140" height="60" as="geometry" />
        </mxCell>
        <mxCell id="ckWN-J3O00ycEV46TAen-25" value="82251 &amp;lt;= income &amp;lt; 171550" style="rhombus;whiteSpace=wrap;html=1;" vertex="1" parent="WIyWlLk6GJQsqaUBKTNV-1">
          <mxGeometry x="85" y="1415" width="170" height="110" as="geometry" />
        </mxCell>
        <mxCell id="ckWN-J3O00ycEV46TAen-26" value="tax = income * 0.28" style="shape=parallelogram;perimeter=parallelogramPerimeter;whiteSpace=wrap;html=1;fixedSize=1;" vertex="1" parent="WIyWlLk6GJQsqaUBKTNV-1">
          <mxGeometry x="1290" y="1355" width="140" height="60" as="geometry" />
        </mxCell>
        <mxCell id="ckWN-J3O00ycEV46TAen-28" value="171551 &amp;lt;= income &amp;lt; 372950" style="rhombus;whiteSpace=wrap;html=1;" vertex="1" parent="WIyWlLk6GJQsqaUBKTNV-1">
          <mxGeometry x="85" y="1555" width="170" height="110" as="geometry" />
        </mxCell>
        <mxCell id="ckWN-J3O00ycEV46TAen-29" value="tax = income * 0.33" style="shape=parallelogram;perimeter=parallelogramPerimeter;whiteSpace=wrap;html=1;fixedSize=1;" vertex="1" parent="WIyWlLk6GJQsqaUBKTNV-1">
          <mxGeometry x="1290" y="1495" width="140" height="60" as="geometry" />
        </mxCell>
        <mxCell id="ckWN-J3O00ycEV46TAen-37" value="tax = income * 0.35" style="shape=parallelogram;perimeter=parallelogramPerimeter;whiteSpace=wrap;html=1;fixedSize=1;" vertex="1" parent="WIyWlLk6GJQsqaUBKTNV-1">
          <mxGeometry x="1290" y="1630" width="140" height="60" as="geometry" />
        </mxCell>
        <mxCell id="ckWN-J3O00ycEV46TAen-65" style="edgeStyle=orthogonalEdgeStyle;rounded=0;orthogonalLoop=1;jettySize=auto;html=1;entryX=0;entryY=0.5;entryDx=0;entryDy=0;" edge="1" parent="WIyWlLk6GJQsqaUBKTNV-1" source="ckWN-J3O00ycEV46TAen-39" target="ckWN-J3O00ycEV46TAen-45">
          <mxGeometry relative="1" as="geometry" />
        </mxCell>
        <mxCell id="ckWN-J3O00ycEV46TAen-68" style="edgeStyle=orthogonalEdgeStyle;rounded=0;orthogonalLoop=1;jettySize=auto;html=1;entryX=0.5;entryY=0;entryDx=0;entryDy=0;" edge="1" parent="WIyWlLk6GJQsqaUBKTNV-1" source="ckWN-J3O00ycEV46TAen-39" target="ckWN-J3O00ycEV46TAen-40">
          <mxGeometry relative="1" as="geometry" />
        </mxCell>
        <mxCell id="ckWN-J3O00ycEV46TAen-39" value="status == &lt;br&gt;MARRIED_SEPERATELY" style="rhombus;whiteSpace=wrap;html=1;" vertex="1" parent="WIyWlLk6GJQsqaUBKTNV-1">
          <mxGeometry x="630" y="585" width="190" height="110" as="geometry" />
        </mxCell>
        <mxCell id="ckWN-J3O00ycEV46TAen-72" style="edgeStyle=orthogonalEdgeStyle;rounded=0;orthogonalLoop=1;jettySize=auto;html=1;" edge="1" parent="WIyWlLk6GJQsqaUBKTNV-1" source="ckWN-J3O00ycEV46TAen-40">
          <mxGeometry relative="1" as="geometry">
            <mxPoint x="840" y="880" as="targetPoint" />
          </mxGeometry>
        </mxCell>
        <mxCell id="ckWN-J3O00ycEV46TAen-40" value="income &amp;lt; 8350" style="rhombus;whiteSpace=wrap;html=1;" vertex="1" parent="WIyWlLk6GJQsqaUBKTNV-1">
          <mxGeometry x="655" y="730" width="140" height="100" as="geometry" />
        </mxCell>
        <mxCell id="ckWN-J3O00ycEV46TAen-41" value="8451 &amp;lt;= income &amp;lt; 33950" style="rhombus;whiteSpace=wrap;html=1;" vertex="1" parent="WIyWlLk6GJQsqaUBKTNV-1">
          <mxGeometry x="660" y="1140" width="160" height="110" as="geometry" />
        </mxCell>
        <mxCell id="ckWN-J3O00ycEV46TAen-42" value="33951 &amp;lt;= income &amp;lt; 82250" style="rhombus;whiteSpace=wrap;html=1;" vertex="1" parent="WIyWlLk6GJQsqaUBKTNV-1">
          <mxGeometry x="660" y="1275" width="160" height="110" as="geometry" />
        </mxCell>
        <mxCell id="ckWN-J3O00ycEV46TAen-43" value="82251 &amp;lt;= income &amp;lt; 171550" style="rhombus;whiteSpace=wrap;html=1;" vertex="1" parent="WIyWlLk6GJQsqaUBKTNV-1">
          <mxGeometry x="655" y="1415" width="170" height="110" as="geometry" />
        </mxCell>
        <mxCell id="ckWN-J3O00ycEV46TAen-44" value="171551 &amp;lt;= income &amp;lt; 372950" style="rhombus;whiteSpace=wrap;html=1;" vertex="1" parent="WIyWlLk6GJQsqaUBKTNV-1">
          <mxGeometry x="655" y="1555" width="170" height="110" as="geometry" />
        </mxCell>
        <mxCell id="ckWN-J3O00ycEV46TAen-69" style="edgeStyle=orthogonalEdgeStyle;rounded=0;orthogonalLoop=1;jettySize=auto;html=1;entryX=0.5;entryY=0;entryDx=0;entryDy=0;" edge="1" parent="WIyWlLk6GJQsqaUBKTNV-1" source="ckWN-J3O00ycEV46TAen-45" target="ckWN-J3O00ycEV46TAen-46">
          <mxGeometry relative="1" as="geometry" />
        </mxCell>
        <mxCell id="ckWN-J3O00ycEV46TAen-45" value="status == &lt;br&gt;HEAD_OF_HOUSEHOLD" style="rhombus;whiteSpace=wrap;html=1;" vertex="1" parent="WIyWlLk6GJQsqaUBKTNV-1">
          <mxGeometry x="910" y="585" width="190" height="110" as="geometry" />
        </mxCell>
        <mxCell id="ckWN-J3O00ycEV46TAen-46" value="income &amp;lt; 8350" style="rhombus;whiteSpace=wrap;html=1;" vertex="1" parent="WIyWlLk6GJQsqaUBKTNV-1">
          <mxGeometry x="935" y="730" width="140" height="100" as="geometry" />
        </mxCell>
        <mxCell id="ckWN-J3O00ycEV46TAen-47" value="8451 &amp;lt;= income &amp;lt; 33950" style="rhombus;whiteSpace=wrap;html=1;" vertex="1" parent="WIyWlLk6GJQsqaUBKTNV-1">
          <mxGeometry x="940" y="1140" width="160" height="110" as="geometry" />
        </mxCell>
        <mxCell id="ckWN-J3O00ycEV46TAen-48" value="33951 &amp;lt;= income &amp;lt; 82250" style="rhombus;whiteSpace=wrap;html=1;" vertex="1" parent="WIyWlLk6GJQsqaUBKTNV-1">
          <mxGeometry x="940" y="1275" width="160" height="110" as="geometry" />
        </mxCell>
        <mxCell id="ckWN-J3O00ycEV46TAen-49" value="82251 &amp;lt;= income &amp;lt; 171550" style="rhombus;whiteSpace=wrap;html=1;" vertex="1" parent="WIyWlLk6GJQsqaUBKTNV-1">
          <mxGeometry x="935" y="1415" width="170" height="110" as="geometry" />
        </mxCell>
        <mxCell id="ckWN-J3O00ycEV46TAen-50" value="171551 &amp;lt;= income &amp;lt; 372950" style="rhombus;whiteSpace=wrap;html=1;" vertex="1" parent="WIyWlLk6GJQsqaUBKTNV-1">
          <mxGeometry x="935" y="1555" width="170" height="110" as="geometry" />
        </mxCell>
        <mxCell id="ckWN-J3O00ycEV46TAen-64" style="edgeStyle=orthogonalEdgeStyle;rounded=0;orthogonalLoop=1;jettySize=auto;html=1;entryX=0;entryY=0.5;entryDx=0;entryDy=0;" edge="1" parent="WIyWlLk6GJQsqaUBKTNV-1" source="ckWN-J3O00ycEV46TAen-51" target="ckWN-J3O00ycEV46TAen-39">
          <mxGeometry relative="1" as="geometry" />
        </mxCell>
        <mxCell id="ckWN-J3O00ycEV46TAen-67" style="edgeStyle=orthogonalEdgeStyle;rounded=0;orthogonalLoop=1;jettySize=auto;html=1;entryX=0.5;entryY=0;entryDx=0;entryDy=0;" edge="1" parent="WIyWlLk6GJQsqaUBKTNV-1" source="ckWN-J3O00ycEV46TAen-51" target="ckWN-J3O00ycEV46TAen-52">
          <mxGeometry relative="1" as="geometry" />
        </mxCell>
        <mxCell id="ckWN-J3O00ycEV46TAen-51" value="status == MARRIED_JOINTLY" style="rhombus;whiteSpace=wrap;html=1;" vertex="1" parent="WIyWlLk6GJQsqaUBKTNV-1">
          <mxGeometry x="355" y="590" width="165" height="100" as="geometry" />
        </mxCell>
        <mxCell id="ckWN-J3O00ycEV46TAen-71" style="edgeStyle=orthogonalEdgeStyle;rounded=0;orthogonalLoop=1;jettySize=auto;html=1;" edge="1" parent="WIyWlLk6GJQsqaUBKTNV-1" source="ckWN-J3O00ycEV46TAen-52">
          <mxGeometry relative="1" as="geometry">
            <mxPoint x="560" y="880" as="targetPoint" />
          </mxGeometry>
        </mxCell>
        <mxCell id="ckWN-J3O00ycEV46TAen-52" value="income &amp;lt; 8350" style="rhombus;whiteSpace=wrap;html=1;" vertex="1" parent="WIyWlLk6GJQsqaUBKTNV-1">
          <mxGeometry x="367.5" y="730" width="140" height="100" as="geometry" />
        </mxCell>
        <mxCell id="ckWN-J3O00ycEV46TAen-53" value="8451 &amp;lt;= income &amp;lt; 33950" style="rhombus;whiteSpace=wrap;html=1;" vertex="1" parent="WIyWlLk6GJQsqaUBKTNV-1">
          <mxGeometry x="370" y="1140" width="160" height="110" as="geometry" />
        </mxCell>
        <mxCell id="ckWN-J3O00ycEV46TAen-54" value="33951 &amp;lt;= income &amp;lt; 82250" style="rhombus;whiteSpace=wrap;html=1;" vertex="1" parent="WIyWlLk6GJQsqaUBKTNV-1">
          <mxGeometry x="370" y="1275" width="160" height="110" as="geometry" />
        </mxCell>
        <mxCell id="ckWN-J3O00ycEV46TAen-55" value="82251 &amp;lt;= income &amp;lt; 171550" style="rhombus;whiteSpace=wrap;html=1;" vertex="1" parent="WIyWlLk6GJQsqaUBKTNV-1">
          <mxGeometry x="365" y="1415" width="170" height="110" as="geometry" />
        </mxCell>
        <mxCell id="ckWN-J3O00ycEV46TAen-56" value="171551 &amp;lt;= income &amp;lt; 372950" style="rhombus;whiteSpace=wrap;html=1;" vertex="1" parent="WIyWlLk6GJQsqaUBKTNV-1">
          <mxGeometry x="365" y="1555" width="170" height="110" as="geometry" />
        </mxCell>
      </root>
    </mxGraphModel>
  </diagram>
</mxfile>
